<?xml version="1.0" encoding="UTF-8" standalone="no"?>
<!DOCTYPE svg PUBLIC "-//W3C//DTD SVG 1.1//EN"
 "http://www.w3.org/Graphics/SVG/1.1/DTD/svg11.dtd">
<!-- Generated by graphviz version 3.0.0 (20220226.1711)
 -->
<!-- Title: dependencies Pages: 1 -->
<svg width="865pt" height="174pt"
 viewBox="0.00 0.00 865.00 173.80" xmlns="http://www.w3.org/2000/svg" xmlns:xlink="http://www.w3.org/1999/xlink">
<g id="graph0" class="graph" transform="scale(1 1) rotate(0) translate(4 169.8)">
<title>dependencies</title>
<polygon fill="white" stroke="transparent" points="-4,4 -4,-169.8 861,-169.8 861,4 -4,4"/>
<text text-anchor="middle" x="428.5" y="-8.2" font-family="sans-serif" font-size="14.00">dependencies</text>
<g id="clust1" class="cluster">
<title>cluster_CarModule</title>
<polygon fill="none" stroke="black" stroke-dasharray="1,5" points="8,-32.8 8,-157.8 849,-157.8 849,-32.8 8,-32.8"/>
</g>
<g id="clust8" class="cluster">
<title>cluster_CarModule_imports</title>
<polygon fill="none" stroke="black" points="727,-40.8 727,-92.8 841,-92.8 841,-40.8 727,-40.8"/>
</g>
<g id="clust2" class="cluster">
<title>cluster_CarModule_declarations</title>
<polygon fill="none" stroke="black" points="16,-40.8 16,-92.8 719,-92.8 719,-40.8 16,-40.8"/>
</g>
<!-- CarInfoComponent -->
<g id="node1" class="node">
<title>CarInfoComponent</title>
<polygon fill="#ffffb3" stroke="black" points="711.37,-84.8 586.63,-84.8 586.63,-48.8 711.37,-48.8 711.37,-84.8"/>
<text text-anchor="middle" x="649" y="-62.6" font-family="Times,serif" font-size="14.00">CarInfoComponent</text>
</g>
<!-- CarModule -->
<g id="node6" class="node">
<title>CarModule</title>
<polygon fill="#8dd3c7" stroke="black" points="519.77,-149.8 516.77,-153.8 495.77,-153.8 492.77,-149.8 440.23,-149.8 440.23,-113.8 519.77,-113.8 519.77,-149.8"/>
<text text-anchor="middle" x="480" y="-127.6" font-family="Times,serif" font-size="14.00">CarModule</text>
</g>
<!-- CarInfoComponent&#45;&gt;CarModule -->
<g id="edge1" class="edge">
<title>CarInfoComponent&#45;&gt;CarModule</title>
<path fill="none" stroke="black" d="M649,-84.82C649,-102.17 649,-125.8 649,-125.8 649,-125.8 530.05,-125.8 530.05,-125.8"/>
<polygon fill="black" stroke="black" points="530.05,-122.3 520.05,-125.8 530.05,-129.3 530.05,-122.3"/>
</g>
<!-- CarPage -->
<g id="node2" class="node">
<title>CarPage</title>
<polygon fill="#ffffb3" stroke="black" points="568.93,-84.8 505.07,-84.8 505.07,-48.8 568.93,-48.8 568.93,-84.8"/>
<text text-anchor="middle" x="537" y="-62.6" font-family="Times,serif" font-size="14.00">CarPage</text>
</g>
<!-- CarPage&#45;&gt;CarModule -->
<g id="edge2" class="edge">
<title>CarPage&#45;&gt;CarModule</title>
<path fill="none" stroke="black" d="M512.58,-84.91C512.58,-84.91 512.58,-103.79 512.58,-103.79"/>
<polygon fill="black" stroke="black" points="509.08,-103.79 512.58,-113.79 516.08,-103.79 509.08,-103.79"/>
</g>
<!-- CarTitleComponent -->
<g id="node3" class="node">
<title>CarTitleComponent</title>
<polygon fill="#ffffb3" stroke="black" points="486.98,-84.8 359.02,-84.8 359.02,-48.8 486.98,-48.8 486.98,-84.8"/>
<text text-anchor="middle" x="423" y="-62.6" font-family="Times,serif" font-size="14.00">CarTitleComponent</text>
</g>
<!-- CarTitleComponent&#45;&gt;CarModule -->
<g id="edge3" class="edge">
<title>CarTitleComponent&#45;&gt;CarModule</title>
<path fill="none" stroke="black" d="M463.55,-84.91C463.55,-84.91 463.55,-103.79 463.55,-103.79"/>
<polygon fill="black" stroke="black" points="460.05,-103.79 463.55,-113.79 467.05,-103.79 460.05,-103.79"/>
</g>
<!-- CarTotalsComponent -->
<g id="node4" class="node">
<title>CarTotalsComponent</title>
<polygon fill="#ffffb3" stroke="black" points="341.04,-84.8 204.96,-84.8 204.96,-48.8 341.04,-48.8 341.04,-84.8"/>
<text text-anchor="middle" x="273" y="-62.6" font-family="Times,serif" font-size="14.00">CarTotalsComponent</text>
</g>
<!-- CarTotalsComponent&#45;&gt;CarModule -->
<g id="edge4" class="edge">
<title>CarTotalsComponent&#45;&gt;CarModule</title>
<path fill="none" stroke="black" d="M273,-84.82C273,-102.17 273,-125.8 273,-125.8 273,-125.8 430.09,-125.8 430.09,-125.8"/>
<polygon fill="black" stroke="black" points="430.09,-129.3 440.09,-125.8 430.09,-122.3 430.09,-129.3"/>
</g>
<!-- CarTotalsDivsComponent -->
<g id="node5" class="node">
<title>CarTotalsDivsComponent</title>
<polygon fill="#ffffb3" stroke="black" points="186.49,-84.8 23.51,-84.8 23.51,-48.8 186.49,-48.8 186.49,-84.8"/>
<text text-anchor="middle" x="105" y="-62.6" font-family="Times,serif" font-size="14.00">CarTotalsDivsComponent</text>
</g>
<!-- CarTotalsDivsComponent&#45;&gt;CarModule -->
<g id="edge5" class="edge">
<title>CarTotalsDivsComponent&#45;&gt;CarModule</title>
<path fill="none" stroke="black" d="M105,-85.08C105,-106.12 105,-137.8 105,-137.8 105,-137.8 430.22,-137.8 430.22,-137.8"/>
<polygon fill="black" stroke="black" points="430.22,-141.3 440.22,-137.8 430.22,-134.3 430.22,-141.3"/>
</g>
<!-- SharedModule -->
<g id="node7" class="node">
<title>SharedModule</title>
<polygon fill="#8dd3c7" stroke="black" points="833.43,-84.8 830.43,-88.8 809.43,-88.8 806.43,-84.8 734.57,-84.8 734.57,-48.8 833.43,-48.8 833.43,-84.8"/>
<text text-anchor="middle" x="784" y="-62.6" font-family="Times,serif" font-size="14.00">SharedModule</text>
</g>
<!-- SharedModule&#45;&gt;CarModule -->
<g id="edge6" class="edge">
<title>SharedModule&#45;&gt;CarModule</title>
<path fill="none" stroke="black" d="M784,-85.08C784,-106.12 784,-137.8 784,-137.8 784,-137.8 530.06,-137.8 530.06,-137.8"/>
<polygon fill="black" stroke="black" points="530.06,-134.3 520.06,-137.8 530.06,-141.3 530.06,-134.3"/>
</g>
</g>
</svg>
