<?xml version="1.0" encoding="UTF-8" standalone="no"?>
<!DOCTYPE svg PUBLIC "-//W3C//DTD SVG 1.1//EN"
 "http://www.w3.org/Graphics/SVG/1.1/DTD/svg11.dtd">
<!-- Generated by graphviz version 3.0.0 (20220226.1711)
 -->
<!-- Title: dependencies Pages: 1 -->
<svg width="814pt" height="174pt"
 viewBox="0.00 0.00 814.00 173.80" xmlns="http://www.w3.org/2000/svg" xmlns:xlink="http://www.w3.org/1999/xlink">
<g id="graph0" class="graph" transform="scale(1 1) rotate(0) translate(4 169.8)">
<title>dependencies</title>
<polygon fill="white" stroke="transparent" points="-4,4 -4,-169.8 810,-169.8 810,4 -4,4"/>
<text text-anchor="middle" x="403" y="-8.2" font-family="sans-serif" font-size="14.00">dependencies</text>
<g id="clust1" class="cluster">
<title>cluster_PairingModule</title>
<polygon fill="none" stroke="black" stroke-dasharray="1,5" points="8,-32.8 8,-157.8 798,-157.8 798,-32.8 8,-32.8"/>
</g>
<g id="clust2" class="cluster">
<title>cluster_PairingModule_declarations</title>
<polygon fill="none" stroke="black" points="138,-40.8 138,-92.8 790,-92.8 790,-40.8 138,-40.8"/>
</g>
<g id="clust7" class="cluster">
<title>cluster_PairingModule_imports</title>
<polygon fill="none" stroke="black" points="16,-40.8 16,-92.8 130,-92.8 130,-40.8 16,-40.8"/>
</g>
<!-- PairingBlockInfoComponent -->
<g id="node1" class="node">
<title>PairingBlockInfoComponent</title>
<polygon fill="#ffffb3" stroke="black" points="782.04,-84.8 603.96,-84.8 603.96,-48.8 782.04,-48.8 782.04,-84.8"/>
<text text-anchor="middle" x="693" y="-62.6" font-family="Times,serif" font-size="14.00">PairingBlockInfoComponent</text>
</g>
<!-- PairingModule -->
<g id="node5" class="node">
<title>PairingModule</title>
<polygon fill="#8dd3c7" stroke="black" points="376.99,-149.8 373.99,-153.8 352.99,-153.8 349.99,-149.8 277.01,-149.8 277.01,-113.8 376.99,-113.8 376.99,-149.8"/>
<text text-anchor="middle" x="327" y="-127.6" font-family="Times,serif" font-size="14.00">PairingModule</text>
</g>
<!-- PairingBlockInfoComponent&#45;&gt;PairingModule -->
<g id="edge1" class="edge">
<title>PairingBlockInfoComponent&#45;&gt;PairingModule</title>
<path fill="none" stroke="black" d="M693,-85.08C693,-106.12 693,-137.8 693,-137.8 693,-137.8 387.12,-137.8 387.12,-137.8"/>
<polygon fill="black" stroke="black" points="387.12,-134.3 377.12,-137.8 387.12,-141.3 387.12,-134.3"/>
</g>
<!-- PairingHeaderComponent -->
<g id="node2" class="node">
<title>PairingHeaderComponent</title>
<polygon fill="#ffffb3" stroke="black" points="586.19,-84.8 423.81,-84.8 423.81,-48.8 586.19,-48.8 586.19,-84.8"/>
<text text-anchor="middle" x="505" y="-62.6" font-family="Times,serif" font-size="14.00">PairingHeaderComponent</text>
</g>
<!-- PairingHeaderComponent&#45;&gt;PairingModule -->
<g id="edge2" class="edge">
<title>PairingHeaderComponent&#45;&gt;PairingModule</title>
<path fill="none" stroke="black" d="M505,-84.82C505,-102.17 505,-125.8 505,-125.8 505,-125.8 387.06,-125.8 387.06,-125.8"/>
<polygon fill="black" stroke="black" points="387.06,-122.3 377.06,-125.8 387.06,-129.3 387.06,-122.3"/>
</g>
<!-- PairingModalComponent -->
<g id="node3" class="node">
<title>PairingModalComponent</title>
<polygon fill="#ffffb3" stroke="black" points="406.32,-84.8 247.68,-84.8 247.68,-48.8 406.32,-48.8 406.32,-84.8"/>
<text text-anchor="middle" x="327" y="-62.6" font-family="Times,serif" font-size="14.00">PairingModalComponent</text>
</g>
<!-- PairingModalComponent&#45;&gt;PairingModule -->
<g id="edge3" class="edge">
<title>PairingModalComponent&#45;&gt;PairingModule</title>
<path fill="none" stroke="black" d="M327,-84.91C327,-84.91 327,-103.79 327,-103.79"/>
<polygon fill="black" stroke="black" points="323.5,-103.79 327,-113.79 330.5,-103.79 323.5,-103.79"/>
</g>
<!-- PairingPage -->
<g id="node4" class="node">
<title>PairingPage</title>
<polygon fill="#ffffb3" stroke="black" points="229.66,-84.8 146.34,-84.8 146.34,-48.8 229.66,-48.8 229.66,-84.8"/>
<text text-anchor="middle" x="188" y="-62.6" font-family="Times,serif" font-size="14.00">PairingPage</text>
</g>
<!-- PairingPage&#45;&gt;PairingModule -->
<g id="edge4" class="edge">
<title>PairingPage&#45;&gt;PairingModule</title>
<path fill="none" stroke="black" d="M188,-84.82C188,-102.17 188,-125.8 188,-125.8 188,-125.8 266.82,-125.8 266.82,-125.8"/>
<polygon fill="black" stroke="black" points="266.82,-129.3 276.82,-125.8 266.82,-122.3 266.82,-129.3"/>
</g>
<!-- SharedModule -->
<g id="node6" class="node">
<title>SharedModule</title>
<polygon fill="#8dd3c7" stroke="black" points="122.43,-84.8 119.43,-88.8 98.43,-88.8 95.43,-84.8 23.57,-84.8 23.57,-48.8 122.43,-48.8 122.43,-84.8"/>
<text text-anchor="middle" x="73" y="-62.6" font-family="Times,serif" font-size="14.00">SharedModule</text>
</g>
<!-- SharedModule&#45;&gt;PairingModule -->
<g id="edge5" class="edge">
<title>SharedModule&#45;&gt;PairingModule</title>
<path fill="none" stroke="black" d="M73,-85.08C73,-106.12 73,-137.8 73,-137.8 73,-137.8 266.82,-137.8 266.82,-137.8"/>
<polygon fill="black" stroke="black" points="266.82,-141.3 276.82,-137.8 266.82,-134.3 266.82,-141.3"/>
</g>
</g>
</svg>
