<?xml version="1.0" encoding="UTF-8" standalone="no"?>
<!DOCTYPE svg PUBLIC "-//W3C//DTD SVG 1.1//EN"
 "http://www.w3.org/Graphics/SVG/1.1/DTD/svg11.dtd">
<!-- Generated by graphviz version 3.0.0 (20220226.1711)
 -->
<!-- Title: dependencies Pages: 1 -->
<svg width="885pt" height="174pt"
 viewBox="0.00 0.00 885.00 173.80" xmlns="http://www.w3.org/2000/svg" xmlns:xlink="http://www.w3.org/1999/xlink">
<g id="graph0" class="graph" transform="scale(1 1) rotate(0) translate(4 169.8)">
<title>dependencies</title>
<polygon fill="white" stroke="transparent" points="-4,4 -4,-169.8 881,-169.8 881,4 -4,4"/>
<text text-anchor="middle" x="438.5" y="-8.2" font-family="sans-serif" font-size="14.00">dependencies</text>
<g id="clust1" class="cluster">
<title>cluster_InscriptionsModule</title>
<polygon fill="none" stroke="black" stroke-dasharray="1,5" points="8,-32.8 8,-157.8 869,-157.8 869,-32.8 8,-32.8"/>
</g>
<g id="clust2" class="cluster">
<title>cluster_InscriptionsModule_declarations</title>
<polygon fill="none" stroke="black" points="138,-40.8 138,-92.8 861,-92.8 861,-40.8 138,-40.8"/>
</g>
<g id="clust7" class="cluster">
<title>cluster_InscriptionsModule_imports</title>
<polygon fill="none" stroke="black" points="16,-40.8 16,-92.8 130,-92.8 130,-40.8 16,-40.8"/>
</g>
<!-- InscriptionsItemComponent -->
<g id="node1" class="node">
<title>InscriptionsItemComponent</title>
<polygon fill="#ffffb3" stroke="black" points="852.59,-84.8 679.41,-84.8 679.41,-48.8 852.59,-48.8 852.59,-84.8"/>
<text text-anchor="middle" x="766" y="-62.6" font-family="Times,serif" font-size="14.00">InscriptionsItemComponent</text>
</g>
<!-- InscriptionsModule -->
<g id="node5" class="node">
<title>InscriptionsModule</title>
<polygon fill="#8dd3c7" stroke="black" points="499.66,-149.8 496.66,-153.8 475.66,-153.8 472.66,-149.8 374.34,-149.8 374.34,-113.8 499.66,-113.8 499.66,-149.8"/>
<text text-anchor="middle" x="437" y="-127.6" font-family="Times,serif" font-size="14.00">InscriptionsModule</text>
</g>
<!-- InscriptionsItemComponent&#45;&gt;InscriptionsModule -->
<g id="edge1" class="edge">
<title>InscriptionsItemComponent&#45;&gt;InscriptionsModule</title>
<path fill="none" stroke="black" d="M766,-85.08C766,-106.12 766,-137.8 766,-137.8 766,-137.8 509.66,-137.8 509.66,-137.8"/>
<polygon fill="black" stroke="black" points="509.66,-134.3 499.66,-137.8 509.66,-141.3 509.66,-134.3"/>
</g>
<!-- InscriptionsPage -->
<g id="node2" class="node">
<title>InscriptionsPage</title>
<polygon fill="#ffffb3" stroke="black" points="661.82,-84.8 552.18,-84.8 552.18,-48.8 661.82,-48.8 661.82,-84.8"/>
<text text-anchor="middle" x="607" y="-62.6" font-family="Times,serif" font-size="14.00">InscriptionsPage</text>
</g>
<!-- InscriptionsPage&#45;&gt;InscriptionsModule -->
<g id="edge2" class="edge">
<title>InscriptionsPage&#45;&gt;InscriptionsModule</title>
<path fill="none" stroke="black" d="M607,-84.82C607,-102.17 607,-125.8 607,-125.8 607,-125.8 509.82,-125.8 509.82,-125.8"/>
<polygon fill="black" stroke="black" points="509.82,-122.3 499.82,-125.8 509.82,-129.3 509.82,-122.3"/>
</g>
<!-- InscriptionsPopoverComponent -->
<g id="node3" class="node">
<title>InscriptionsPopoverComponent</title>
<polygon fill="#ffffb3" stroke="black" points="534.1,-84.8 339.9,-84.8 339.9,-48.8 534.1,-48.8 534.1,-84.8"/>
<text text-anchor="middle" x="437" y="-62.6" font-family="Times,serif" font-size="14.00">InscriptionsPopoverComponent</text>
</g>
<!-- InscriptionsPopoverComponent&#45;&gt;InscriptionsModule -->
<g id="edge3" class="edge">
<title>InscriptionsPopoverComponent&#45;&gt;InscriptionsModule</title>
<path fill="none" stroke="black" d="M437,-84.91C437,-84.91 437,-103.79 437,-103.79"/>
<polygon fill="black" stroke="black" points="433.5,-103.79 437,-113.79 440.5,-103.79 433.5,-103.79"/>
</g>
<!-- InscriptionsStateComponent -->
<g id="node4" class="node">
<title>InscriptionsStateComponent</title>
<polygon fill="#ffffb3" stroke="black" points="321.93,-84.8 146.07,-84.8 146.07,-48.8 321.93,-48.8 321.93,-84.8"/>
<text text-anchor="middle" x="234" y="-62.6" font-family="Times,serif" font-size="14.00">InscriptionsStateComponent</text>
</g>
<!-- InscriptionsStateComponent&#45;&gt;InscriptionsModule -->
<g id="edge4" class="edge">
<title>InscriptionsStateComponent&#45;&gt;InscriptionsModule</title>
<path fill="none" stroke="black" d="M234,-84.82C234,-102.17 234,-125.8 234,-125.8 234,-125.8 364.16,-125.8 364.16,-125.8"/>
<polygon fill="black" stroke="black" points="364.16,-129.3 374.16,-125.8 364.16,-122.3 364.16,-129.3"/>
</g>
<!-- SharedModule -->
<g id="node6" class="node">
<title>SharedModule</title>
<polygon fill="#8dd3c7" stroke="black" points="122.43,-84.8 119.43,-88.8 98.43,-88.8 95.43,-84.8 23.57,-84.8 23.57,-48.8 122.43,-48.8 122.43,-84.8"/>
<text text-anchor="middle" x="73" y="-62.6" font-family="Times,serif" font-size="14.00">SharedModule</text>
</g>
<!-- SharedModule&#45;&gt;InscriptionsModule -->
<g id="edge5" class="edge">
<title>SharedModule&#45;&gt;InscriptionsModule</title>
<path fill="none" stroke="black" d="M73,-85.08C73,-106.12 73,-137.8 73,-137.8 73,-137.8 364.01,-137.8 364.01,-137.8"/>
<polygon fill="black" stroke="black" points="364.01,-141.3 374.01,-137.8 364.01,-134.3 364.01,-141.3"/>
</g>
</g>
</svg>
