<?xml version="1.0" encoding="UTF-8" standalone="no"?>
<!DOCTYPE svg PUBLIC "-//W3C//DTD SVG 1.1//EN"
 "http://www.w3.org/Graphics/SVG/1.1/DTD/svg11.dtd">
<!-- Generated by graphviz version 3.0.0 (20220226.1711)
 -->
<!-- Title: dependencies Pages: 1 -->
<svg width="1386pt" height="174pt"
 viewBox="0.00 0.00 1386.00 173.80" xmlns="http://www.w3.org/2000/svg" xmlns:xlink="http://www.w3.org/1999/xlink">
<g id="graph0" class="graph" transform="scale(1 1) rotate(0) translate(4 169.8)">
<title>dependencies</title>
<polygon fill="white" stroke="transparent" points="-4,4 -4,-169.8 1382,-169.8 1382,4 -4,4"/>
<text text-anchor="middle" x="689" y="-8.2" font-family="sans-serif" font-size="14.00">dependencies</text>
<g id="clust1" class="cluster">
<title>cluster_TournamentModule</title>
<polygon fill="none" stroke="black" stroke-dasharray="1,5" points="8,-32.8 8,-157.8 1370,-157.8 1370,-32.8 8,-32.8"/>
</g>
<g id="clust2" class="cluster">
<title>cluster_TournamentModule_declarations</title>
<polygon fill="none" stroke="black" points="138,-40.8 138,-92.8 1362,-92.8 1362,-40.8 138,-40.8"/>
</g>
<g id="clust9" class="cluster">
<title>cluster_TournamentModule_imports</title>
<polygon fill="none" stroke="black" points="16,-40.8 16,-92.8 130,-92.8 130,-40.8 16,-40.8"/>
</g>
<!-- TournamentInfoComponent -->
<g id="node1" class="node">
<title>TournamentInfoComponent</title>
<polygon fill="#ffffb3" stroke="black" points="1353.58,-84.8 1180.42,-84.8 1180.42,-48.8 1353.58,-48.8 1353.58,-84.8"/>
<text text-anchor="middle" x="1267" y="-62.6" font-family="Times,serif" font-size="14.00">TournamentInfoComponent</text>
</g>
<!-- TournamentModule -->
<g id="node7" class="node">
<title>TournamentModule</title>
<polygon fill="#8dd3c7" stroke="black" points="739.97,-149.8 736.97,-153.8 715.97,-153.8 712.97,-149.8 612.03,-149.8 612.03,-113.8 739.97,-113.8 739.97,-149.8"/>
<text text-anchor="middle" x="676" y="-127.6" font-family="Times,serif" font-size="14.00">TournamentModule</text>
</g>
<!-- TournamentInfoComponent&#45;&gt;TournamentModule -->
<g id="edge1" class="edge">
<title>TournamentInfoComponent&#45;&gt;TournamentModule</title>
<path fill="none" stroke="black" d="M1267,-85.09C1267,-107.01 1267,-140.8 1267,-140.8 1267,-140.8 750.09,-140.8 750.09,-140.8"/>
<polygon fill="black" stroke="black" points="750.09,-137.3 740.09,-140.8 750.09,-144.3 750.09,-137.3"/>
</g>
<!-- TournamentMyInscriptionsComponent -->
<g id="node2" class="node">
<title>TournamentMyInscriptionsComponent</title>
<polygon fill="#ffffb3" stroke="black" points="1162.8,-84.8 927.2,-84.8 927.2,-48.8 1162.8,-48.8 1162.8,-84.8"/>
<text text-anchor="middle" x="1045" y="-62.6" font-family="Times,serif" font-size="14.00">TournamentMyInscriptionsComponent</text>
</g>
<!-- TournamentMyInscriptionsComponent&#45;&gt;TournamentModule -->
<g id="edge2" class="edge">
<title>TournamentMyInscriptionsComponent&#45;&gt;TournamentModule</title>
<path fill="none" stroke="black" d="M1045,-84.91C1045,-104.14 1045,-131.8 1045,-131.8 1045,-131.8 750.27,-131.8 750.27,-131.8"/>
<polygon fill="black" stroke="black" points="750.27,-128.3 740.27,-131.8 750.27,-135.3 750.27,-128.3"/>
</g>
<!-- TournamentPage -->
<g id="node3" class="node">
<title>TournamentPage</title>
<polygon fill="#ffffb3" stroke="black" points="909.64,-84.8 798.36,-84.8 798.36,-48.8 909.64,-48.8 909.64,-84.8"/>
<text text-anchor="middle" x="854" y="-62.6" font-family="Times,serif" font-size="14.00">TournamentPage</text>
</g>
<!-- TournamentPage&#45;&gt;TournamentModule -->
<g id="edge3" class="edge">
<title>TournamentPage&#45;&gt;TournamentModule</title>
<path fill="none" stroke="black" d="M854,-84.83C854,-101.2 854,-122.8 854,-122.8 854,-122.8 750.01,-122.8 750.01,-122.8"/>
<polygon fill="black" stroke="black" points="750.01,-119.3 740.01,-122.8 750.01,-126.3 750.01,-119.3"/>
</g>
<!-- TournamentRequisitesComponent -->
<g id="node4" class="node">
<title>TournamentRequisitesComponent</title>
<polygon fill="#ffffb3" stroke="black" points="780.08,-84.8 571.92,-84.8 571.92,-48.8 780.08,-48.8 780.08,-84.8"/>
<text text-anchor="middle" x="676" y="-62.6" font-family="Times,serif" font-size="14.00">TournamentRequisitesComponent</text>
</g>
<!-- TournamentRequisitesComponent&#45;&gt;TournamentModule -->
<g id="edge4" class="edge">
<title>TournamentRequisitesComponent&#45;&gt;TournamentModule</title>
<path fill="none" stroke="black" d="M676,-84.91C676,-84.91 676,-103.79 676,-103.79"/>
<polygon fill="black" stroke="black" points="672.5,-103.79 676,-113.79 679.5,-103.79 672.5,-103.79"/>
</g>
<!-- TournamentRoundsComponent -->
<g id="node5" class="node">
<title>TournamentRoundsComponent</title>
<polygon fill="#ffffb3" stroke="black" points="554.04,-84.8 361.96,-84.8 361.96,-48.8 554.04,-48.8 554.04,-84.8"/>
<text text-anchor="middle" x="458" y="-62.6" font-family="Times,serif" font-size="14.00">TournamentRoundsComponent</text>
</g>
<!-- TournamentRoundsComponent&#45;&gt;TournamentModule -->
<g id="edge5" class="edge">
<title>TournamentRoundsComponent&#45;&gt;TournamentModule</title>
<path fill="none" stroke="black" d="M458,-84.83C458,-101.2 458,-122.8 458,-122.8 458,-122.8 601.77,-122.8 601.77,-122.8"/>
<polygon fill="black" stroke="black" points="601.77,-126.3 611.77,-122.8 601.77,-119.3 601.77,-126.3"/>
</g>
<!-- TournamentWinnersComponent -->
<g id="node6" class="node">
<title>TournamentWinnersComponent</title>
<polygon fill="#ffffb3" stroke="black" points="343.68,-84.8 146.32,-84.8 146.32,-48.8 343.68,-48.8 343.68,-84.8"/>
<text text-anchor="middle" x="245" y="-62.6" font-family="Times,serif" font-size="14.00">TournamentWinnersComponent</text>
</g>
<!-- TournamentWinnersComponent&#45;&gt;TournamentModule -->
<g id="edge6" class="edge">
<title>TournamentWinnersComponent&#45;&gt;TournamentModule</title>
<path fill="none" stroke="black" d="M245,-84.91C245,-104.14 245,-131.8 245,-131.8 245,-131.8 601.94,-131.8 601.94,-131.8"/>
<polygon fill="black" stroke="black" points="601.94,-135.3 611.94,-131.8 601.94,-128.3 601.94,-135.3"/>
</g>
<!-- SharedModule -->
<g id="node8" class="node">
<title>SharedModule</title>
<polygon fill="#8dd3c7" stroke="black" points="122.43,-84.8 119.43,-88.8 98.43,-88.8 95.43,-84.8 23.57,-84.8 23.57,-48.8 122.43,-48.8 122.43,-84.8"/>
<text text-anchor="middle" x="73" y="-62.6" font-family="Times,serif" font-size="14.00">SharedModule</text>
</g>
<!-- SharedModule&#45;&gt;TournamentModule -->
<g id="edge7" class="edge">
<title>SharedModule&#45;&gt;TournamentModule</title>
<path fill="none" stroke="black" d="M73,-85.09C73,-107.01 73,-140.8 73,-140.8 73,-140.8 601.75,-140.8 601.75,-140.8"/>
<polygon fill="black" stroke="black" points="601.75,-144.3 611.75,-140.8 601.75,-137.3 601.75,-144.3"/>
</g>
</g>
</svg>
