<?xml version="1.0" encoding="UTF-8" standalone="no"?>
<!DOCTYPE svg PUBLIC "-//W3C//DTD SVG 1.1//EN"
 "http://www.w3.org/Graphics/SVG/1.1/DTD/svg11.dtd">
<!-- Generated by graphviz version 3.0.0 (20220226.1711)
 -->
<!-- Title: dependencies Pages: 1 -->
<svg width="595pt" height="174pt"
 viewBox="0.00 0.00 595.00 173.80" xmlns="http://www.w3.org/2000/svg" xmlns:xlink="http://www.w3.org/1999/xlink">
<g id="graph0" class="graph" transform="scale(1 1) rotate(0) translate(4 169.8)">
<title>dependencies</title>
<polygon fill="white" stroke="transparent" points="-4,4 -4,-169.8 591,-169.8 591,4 -4,4"/>
<text text-anchor="middle" x="293.5" y="-8.2" font-family="sans-serif" font-size="14.00">dependencies</text>
<g id="clust1" class="cluster">
<title>cluster_GarageModule</title>
<polygon fill="none" stroke="black" stroke-dasharray="1,5" points="8,-32.8 8,-157.8 579,-157.8 579,-32.8 8,-32.8"/>
</g>
<g id="clust2" class="cluster">
<title>cluster_GarageModule_declarations</title>
<polygon fill="none" stroke="black" points="138,-40.8 138,-92.8 571,-92.8 571,-40.8 138,-40.8"/>
</g>
<g id="clust6" class="cluster">
<title>cluster_GarageModule_imports</title>
<polygon fill="none" stroke="black" points="16,-40.8 16,-92.8 130,-92.8 130,-40.8 16,-40.8"/>
</g>
<!-- GarageListPage -->
<g id="node1" class="node">
<title>GarageListPage</title>
<polygon fill="#ffffb3" stroke="black" points="562.91,-84.8 457.09,-84.8 457.09,-48.8 562.91,-48.8 562.91,-84.8"/>
<text text-anchor="middle" x="510" y="-62.6" font-family="Times,serif" font-size="14.00">GarageListPage</text>
</g>
<!-- GarageModule -->
<g id="node4" class="node">
<title>GarageModule</title>
<polygon fill="#8dd3c7" stroke="black" points="357.97,-149.8 354.97,-153.8 333.97,-153.8 330.97,-149.8 258.03,-149.8 258.03,-113.8 357.97,-113.8 357.97,-149.8"/>
<text text-anchor="middle" x="308" y="-127.6" font-family="Times,serif" font-size="14.00">GarageModule</text>
</g>
<!-- GarageListPage&#45;&gt;GarageModule -->
<g id="edge1" class="edge">
<title>GarageListPage&#45;&gt;GarageModule</title>
<path fill="none" stroke="black" d="M510,-84.91C510,-104.14 510,-131.8 510,-131.8 510,-131.8 368.19,-131.8 368.19,-131.8"/>
<polygon fill="black" stroke="black" points="368.19,-128.3 358.19,-131.8 368.19,-135.3 368.19,-128.3"/>
</g>
<!-- GarageOnePage -->
<g id="node2" class="node">
<title>GarageOnePage</title>
<polygon fill="#ffffb3" stroke="black" points="439.45,-84.8 332.55,-84.8 332.55,-48.8 439.45,-48.8 439.45,-84.8"/>
<text text-anchor="middle" x="386" y="-62.6" font-family="Times,serif" font-size="14.00">GarageOnePage</text>
</g>
<!-- GarageOnePage&#45;&gt;GarageModule -->
<g id="edge2" class="edge">
<title>GarageOnePage&#45;&gt;GarageModule</title>
<path fill="none" stroke="black" d="M345.25,-84.91C345.25,-84.91 345.25,-103.79 345.25,-103.79"/>
<polygon fill="black" stroke="black" points="341.75,-103.79 345.25,-113.79 348.75,-103.79 341.75,-103.79"/>
</g>
<!-- GaragePopoverComponent -->
<g id="node3" class="node">
<title>GaragePopoverComponent</title>
<polygon fill="#ffffb3" stroke="black" points="314.41,-84.8 145.59,-84.8 145.59,-48.8 314.41,-48.8 314.41,-84.8"/>
<text text-anchor="middle" x="230" y="-62.6" font-family="Times,serif" font-size="14.00">GaragePopoverComponent</text>
</g>
<!-- GaragePopoverComponent&#45;&gt;GarageModule -->
<g id="edge3" class="edge">
<title>GaragePopoverComponent&#45;&gt;GarageModule</title>
<path fill="none" stroke="black" d="M286.11,-84.91C286.11,-84.91 286.11,-103.79 286.11,-103.79"/>
<polygon fill="black" stroke="black" points="282.61,-103.79 286.11,-113.79 289.61,-103.79 282.61,-103.79"/>
</g>
<!-- SharedModule -->
<g id="node5" class="node">
<title>SharedModule</title>
<polygon fill="#8dd3c7" stroke="black" points="122.43,-84.8 119.43,-88.8 98.43,-88.8 95.43,-84.8 23.57,-84.8 23.57,-48.8 122.43,-48.8 122.43,-84.8"/>
<text text-anchor="middle" x="73" y="-62.6" font-family="Times,serif" font-size="14.00">SharedModule</text>
</g>
<!-- SharedModule&#45;&gt;GarageModule -->
<g id="edge4" class="edge">
<title>SharedModule&#45;&gt;GarageModule</title>
<path fill="none" stroke="black" d="M73,-84.91C73,-104.14 73,-131.8 73,-131.8 73,-131.8 247.87,-131.8 247.87,-131.8"/>
<polygon fill="black" stroke="black" points="247.87,-135.3 257.87,-131.8 247.87,-128.3 247.87,-135.3"/>
</g>
</g>
</svg>
