<?xml version="1.0" encoding="UTF-8" standalone="no"?>
<!DOCTYPE svg PUBLIC "-//W3C//DTD SVG 1.1//EN"
 "http://www.w3.org/Graphics/SVG/1.1/DTD/svg11.dtd">
<!-- Generated by graphviz version 3.0.0 (20220226.1711)
 -->
<!-- Title: dependencies Pages: 1 -->
<svg width="300pt" height="174pt"
 viewBox="0.00 0.00 300.00 173.80" xmlns="http://www.w3.org/2000/svg" xmlns:xlink="http://www.w3.org/1999/xlink">
<g id="graph0" class="graph" transform="scale(1 1) rotate(0) translate(4 169.8)">
<title>dependencies</title>
<polygon fill="white" stroke="transparent" points="-4,4 -4,-169.8 296,-169.8 296,4 -4,4"/>
<text text-anchor="middle" x="146" y="-8.2" font-family="sans-serif" font-size="14.00">dependencies</text>
<g id="clust1" class="cluster">
<title>cluster_PrivacyPolicyModule</title>
<polygon fill="none" stroke="black" stroke-dasharray="1,5" points="8,-32.8 8,-157.8 284,-157.8 284,-32.8 8,-32.8"/>
</g>
<g id="clust2" class="cluster">
<title>cluster_PrivacyPolicyModule_declarations</title>
<polygon fill="none" stroke="black" points="138,-40.8 138,-92.8 276,-92.8 276,-40.8 138,-40.8"/>
</g>
<g id="clust4" class="cluster">
<title>cluster_PrivacyPolicyModule_imports</title>
<polygon fill="none" stroke="black" points="16,-40.8 16,-92.8 130,-92.8 130,-40.8 16,-40.8"/>
</g>
<!-- PrivacyPolicyPage -->
<g id="node1" class="node">
<title>PrivacyPolicyPage</title>
<polygon fill="#ffffb3" stroke="black" points="267.76,-84.8 146.24,-84.8 146.24,-48.8 267.76,-48.8 267.76,-84.8"/>
<text text-anchor="middle" x="207" y="-62.6" font-family="Times,serif" font-size="14.00">PrivacyPolicyPage</text>
</g>
<!-- PrivacyPolicyModule -->
<g id="node2" class="node">
<title>PrivacyPolicyModule</title>
<polygon fill="#8dd3c7" stroke="black" points="215.1,-149.8 212.1,-153.8 191.1,-153.8 188.1,-149.8 76.9,-149.8 76.9,-113.8 215.1,-113.8 215.1,-149.8"/>
<text text-anchor="middle" x="146" y="-127.6" font-family="Times,serif" font-size="14.00">PrivacyPolicyModule</text>
</g>
<!-- PrivacyPolicyPage&#45;&gt;PrivacyPolicyModule -->
<g id="edge1" class="edge">
<title>PrivacyPolicyPage&#45;&gt;PrivacyPolicyModule</title>
<path fill="none" stroke="black" d="M180.58,-84.91C180.58,-84.91 180.58,-103.79 180.58,-103.79"/>
<polygon fill="black" stroke="black" points="177.08,-103.79 180.58,-113.79 184.08,-103.79 177.08,-103.79"/>
</g>
<!-- SharedModule -->
<g id="node3" class="node">
<title>SharedModule</title>
<polygon fill="#8dd3c7" stroke="black" points="122.43,-84.8 119.43,-88.8 98.43,-88.8 95.43,-84.8 23.57,-84.8 23.57,-48.8 122.43,-48.8 122.43,-84.8"/>
<text text-anchor="middle" x="73" y="-62.6" font-family="Times,serif" font-size="14.00">SharedModule</text>
</g>
<!-- SharedModule&#45;&gt;PrivacyPolicyModule -->
<g id="edge2" class="edge">
<title>SharedModule&#45;&gt;PrivacyPolicyModule</title>
<path fill="none" stroke="black" d="M99.58,-84.91C99.58,-84.91 99.58,-103.79 99.58,-103.79"/>
<polygon fill="black" stroke="black" points="96.08,-103.79 99.58,-113.79 103.08,-103.79 96.08,-103.79"/>
</g>
</g>
</svg>
