<?xml version="1.0" encoding="UTF-8" standalone="no"?>
<!DOCTYPE svg PUBLIC "-//W3C//DTD SVG 1.1//EN"
 "http://www.w3.org/Graphics/SVG/1.1/DTD/svg11.dtd">
<!-- Generated by graphviz version 3.0.0 (20220226.1711)
 -->
<!-- Title: dependencies Pages: 1 -->
<svg width="762pt" height="174pt"
 viewBox="0.00 0.00 762.00 173.80" xmlns="http://www.w3.org/2000/svg" xmlns:xlink="http://www.w3.org/1999/xlink">
<g id="graph0" class="graph" transform="scale(1 1) rotate(0) translate(4 169.8)">
<title>dependencies</title>
<polygon fill="white" stroke="transparent" points="-4,4 -4,-169.8 758,-169.8 758,4 -4,4"/>
<text text-anchor="middle" x="377" y="-8.2" font-family="sans-serif" font-size="14.00">dependencies</text>
<g id="clust1" class="cluster">
<title>cluster_AccountModule</title>
<polygon fill="none" stroke="black" stroke-dasharray="1,5" points="8,-32.8 8,-157.8 746,-157.8 746,-32.8 8,-32.8"/>
</g>
<g id="clust2" class="cluster">
<title>cluster_AccountModule_declarations</title>
<polygon fill="none" stroke="black" points="138,-40.8 138,-92.8 738,-92.8 738,-40.8 138,-40.8"/>
</g>
<g id="clust7" class="cluster">
<title>cluster_AccountModule_imports</title>
<polygon fill="none" stroke="black" points="16,-40.8 16,-92.8 130,-92.8 130,-40.8 16,-40.8"/>
</g>
<!-- AccountPage -->
<g id="node1" class="node">
<title>AccountPage</title>
<polygon fill="#ffffb3" stroke="black" points="730.14,-84.8 639.86,-84.8 639.86,-48.8 730.14,-48.8 730.14,-84.8"/>
<text text-anchor="middle" x="685" y="-62.6" font-family="Times,serif" font-size="14.00">AccountPage</text>
</g>
<!-- AccountModule -->
<g id="node5" class="node">
<title>AccountModule</title>
<polygon fill="#8dd3c7" stroke="black" points="476.48,-149.8 473.48,-153.8 452.48,-153.8 449.48,-149.8 369.52,-149.8 369.52,-113.8 476.48,-113.8 476.48,-149.8"/>
<text text-anchor="middle" x="423" y="-127.6" font-family="Times,serif" font-size="14.00">AccountModule</text>
</g>
<!-- AccountPage&#45;&gt;AccountModule -->
<g id="edge1" class="edge">
<title>AccountPage&#45;&gt;AccountModule</title>
<path fill="none" stroke="black" d="M685,-85.08C685,-106.12 685,-137.8 685,-137.8 685,-137.8 486.65,-137.8 486.65,-137.8"/>
<polygon fill="black" stroke="black" points="486.65,-134.3 476.65,-137.8 486.65,-141.3 486.65,-134.3"/>
</g>
<!-- AuthComponent -->
<g id="node2" class="node">
<title>AuthComponent</title>
<polygon fill="#ffffb3" stroke="black" points="621.83,-84.8 512.17,-84.8 512.17,-48.8 621.83,-48.8 621.83,-84.8"/>
<text text-anchor="middle" x="567" y="-62.6" font-family="Times,serif" font-size="14.00">AuthComponent</text>
</g>
<!-- AuthComponent&#45;&gt;AccountModule -->
<g id="edge2" class="edge">
<title>AuthComponent&#45;&gt;AccountModule</title>
<path fill="none" stroke="black" d="M567,-84.82C567,-102.17 567,-125.8 567,-125.8 567,-125.8 486.62,-125.8 486.62,-125.8"/>
<polygon fill="black" stroke="black" points="486.62,-122.3 476.62,-125.8 486.62,-129.3 486.62,-122.3"/>
</g>
<!-- DashboardComponent -->
<g id="node3" class="node">
<title>DashboardComponent</title>
<polygon fill="#ffffb3" stroke="black" points="493.98,-84.8 352.02,-84.8 352.02,-48.8 493.98,-48.8 493.98,-84.8"/>
<text text-anchor="middle" x="423" y="-62.6" font-family="Times,serif" font-size="14.00">DashboardComponent</text>
</g>
<!-- DashboardComponent&#45;&gt;AccountModule -->
<g id="edge3" class="edge">
<title>DashboardComponent&#45;&gt;AccountModule</title>
<path fill="none" stroke="black" d="M423,-84.91C423,-84.91 423,-103.79 423,-103.79"/>
<polygon fill="black" stroke="black" points="419.5,-103.79 423,-113.79 426.5,-103.79 419.5,-103.79"/>
</g>
<!-- DashboardResumeComponent -->
<g id="node4" class="node">
<title>DashboardResumeComponent</title>
<polygon fill="#ffffb3" stroke="black" points="333.58,-84.8 146.42,-84.8 146.42,-48.8 333.58,-48.8 333.58,-84.8"/>
<text text-anchor="middle" x="240" y="-62.6" font-family="Times,serif" font-size="14.00">DashboardResumeComponent</text>
</g>
<!-- DashboardResumeComponent&#45;&gt;AccountModule -->
<g id="edge4" class="edge">
<title>DashboardResumeComponent&#45;&gt;AccountModule</title>
<path fill="none" stroke="black" d="M240,-84.82C240,-102.17 240,-125.8 240,-125.8 240,-125.8 359.08,-125.8 359.08,-125.8"/>
<polygon fill="black" stroke="black" points="359.08,-129.3 369.08,-125.8 359.08,-122.3 359.08,-129.3"/>
</g>
<!-- SharedModule -->
<g id="node6" class="node">
<title>SharedModule</title>
<polygon fill="#8dd3c7" stroke="black" points="122.43,-84.8 119.43,-88.8 98.43,-88.8 95.43,-84.8 23.57,-84.8 23.57,-48.8 122.43,-48.8 122.43,-84.8"/>
<text text-anchor="middle" x="73" y="-62.6" font-family="Times,serif" font-size="14.00">SharedModule</text>
</g>
<!-- SharedModule&#45;&gt;AccountModule -->
<g id="edge5" class="edge">
<title>SharedModule&#45;&gt;AccountModule</title>
<path fill="none" stroke="black" d="M73,-85.08C73,-106.12 73,-137.8 73,-137.8 73,-137.8 359.46,-137.8 359.46,-137.8"/>
<polygon fill="black" stroke="black" points="359.46,-141.3 369.46,-137.8 359.46,-134.3 359.46,-141.3"/>
</g>
</g>
</svg>
