<?xml version="1.0" encoding="UTF-8" standalone="no"?>
<!DOCTYPE svg PUBLIC "-//W3C//DTD SVG 1.1//EN"
 "http://www.w3.org/Graphics/SVG/1.1/DTD/svg11.dtd">
<!-- Generated by graphviz version 3.0.0 (20220226.1711)
 -->
<!-- Title: dependencies Pages: 1 -->
<svg width="246pt" height="174pt"
 viewBox="0.00 0.00 246.00 173.80" xmlns="http://www.w3.org/2000/svg" xmlns:xlink="http://www.w3.org/1999/xlink">
<g id="graph0" class="graph" transform="scale(1 1) rotate(0) translate(4 169.8)">
<title>dependencies</title>
<polygon fill="white" stroke="transparent" points="-4,4 -4,-169.8 242,-169.8 242,4 -4,4"/>
<text text-anchor="middle" x="119" y="-8.2" font-family="sans-serif" font-size="14.00">dependencies</text>
<g id="clust1" class="cluster">
<title>cluster_CarsModule</title>
<polygon fill="none" stroke="black" stroke-dasharray="1,5" points="8,-32.8 8,-157.8 230,-157.8 230,-32.8 8,-32.8"/>
</g>
<g id="clust4" class="cluster">
<title>cluster_CarsModule_imports</title>
<polygon fill="none" stroke="black" points="108,-40.8 108,-92.8 222,-92.8 222,-40.8 108,-40.8"/>
</g>
<g id="clust2" class="cluster">
<title>cluster_CarsModule_declarations</title>
<polygon fill="none" stroke="black" points="16,-40.8 16,-92.8 100,-92.8 100,-40.8 16,-40.8"/>
</g>
<!-- CarsPage -->
<g id="node1" class="node">
<title>CarsPage</title>
<polygon fill="#ffffb3" stroke="black" points="92.38,-84.8 23.62,-84.8 23.62,-48.8 92.38,-48.8 92.38,-84.8"/>
<text text-anchor="middle" x="58" y="-62.6" font-family="Times,serif" font-size="14.00">CarsPage</text>
</g>
<!-- CarsModule -->
<g id="node2" class="node">
<title>CarsModule</title>
<polygon fill="#8dd3c7" stroke="black" points="154.71,-149.8 151.71,-153.8 130.71,-153.8 127.71,-149.8 69.29,-149.8 69.29,-113.8 154.71,-113.8 154.71,-149.8"/>
<text text-anchor="middle" x="112" y="-127.6" font-family="Times,serif" font-size="14.00">CarsModule</text>
</g>
<!-- CarsPage&#45;&gt;CarsModule -->
<g id="edge1" class="edge">
<title>CarsPage&#45;&gt;CarsModule</title>
<path fill="none" stroke="black" d="M80.92,-84.91C80.92,-84.91 80.92,-103.79 80.92,-103.79"/>
<polygon fill="black" stroke="black" points="77.42,-103.79 80.92,-113.79 84.42,-103.79 77.42,-103.79"/>
</g>
<!-- SharedModule -->
<g id="node3" class="node">
<title>SharedModule</title>
<polygon fill="#8dd3c7" stroke="black" points="214.43,-84.8 211.43,-88.8 190.43,-88.8 187.43,-84.8 115.57,-84.8 115.57,-48.8 214.43,-48.8 214.43,-84.8"/>
<text text-anchor="middle" x="165" y="-62.6" font-family="Times,serif" font-size="14.00">SharedModule</text>
</g>
<!-- SharedModule&#45;&gt;CarsModule -->
<g id="edge2" class="edge">
<title>SharedModule&#45;&gt;CarsModule</title>
<path fill="none" stroke="black" d="M135.2,-84.91C135.2,-84.91 135.2,-103.79 135.2,-103.79"/>
<polygon fill="black" stroke="black" points="131.7,-103.79 135.2,-113.79 138.7,-103.79 131.7,-103.79"/>
</g>
</g>
</svg>
