<?xml version="1.0" encoding="UTF-8" standalone="no"?>
<!DOCTYPE svg PUBLIC "-//W3C//DTD SVG 1.1//EN"
 "http://www.w3.org/Graphics/SVG/1.1/DTD/svg11.dtd">
<!-- Generated by graphviz version 3.0.0 (20220226.1711)
 -->
<!-- Title: dependencies Pages: 1 -->
<svg width="878pt" height="174pt"
 viewBox="0.00 0.00 878.00 173.80" xmlns="http://www.w3.org/2000/svg" xmlns:xlink="http://www.w3.org/1999/xlink">
<g id="graph0" class="graph" transform="scale(1 1) rotate(0) translate(4 169.8)">
<title>dependencies</title>
<polygon fill="white" stroke="transparent" points="-4,4 -4,-169.8 874,-169.8 874,4 -4,4"/>
<text text-anchor="middle" x="435" y="-8.2" font-family="sans-serif" font-size="14.00">dependencies</text>
<g id="clust1" class="cluster">
<title>cluster_CalendarModule</title>
<polygon fill="none" stroke="black" stroke-dasharray="1,5" points="8,-32.8 8,-157.8 862,-157.8 862,-32.8 8,-32.8"/>
</g>
<g id="clust2" class="cluster">
<title>cluster_CalendarModule_declarations</title>
<polygon fill="none" stroke="black" points="138,-40.8 138,-92.8 854,-92.8 854,-40.8 138,-40.8"/>
</g>
<g id="clust7" class="cluster">
<title>cluster_CalendarModule_imports</title>
<polygon fill="none" stroke="black" points="16,-40.8 16,-92.8 130,-92.8 130,-40.8 16,-40.8"/>
</g>
<!-- CalendarDatesComponent -->
<g id="node1" class="node">
<title>CalendarDatesComponent</title>
<polygon fill="#ffffb3" stroke="black" points="845.74,-84.8 682.26,-84.8 682.26,-48.8 845.74,-48.8 845.74,-84.8"/>
<text text-anchor="middle" x="764" y="-62.6" font-family="Times,serif" font-size="14.00">CalendarDatesComponent</text>
</g>
<!-- CalendarModule -->
<g id="node5" class="node">
<title>CalendarModule</title>
<polygon fill="#8dd3c7" stroke="black" points="394.08,-149.8 391.08,-153.8 370.08,-153.8 367.08,-149.8 283.92,-149.8 283.92,-113.8 394.08,-113.8 394.08,-149.8"/>
<text text-anchor="middle" x="339" y="-127.6" font-family="Times,serif" font-size="14.00">CalendarModule</text>
</g>
<!-- CalendarDatesComponent&#45;&gt;CalendarModule -->
<g id="edge1" class="edge">
<title>CalendarDatesComponent&#45;&gt;CalendarModule</title>
<path fill="none" stroke="black" d="M764,-85.08C764,-106.12 764,-137.8 764,-137.8 764,-137.8 404.13,-137.8 404.13,-137.8"/>
<polygon fill="black" stroke="black" points="404.13,-134.3 394.13,-137.8 404.13,-141.3 404.13,-134.3"/>
</g>
<!-- CalendarItemTournamentComponent -->
<g id="node2" class="node">
<title>CalendarItemTournamentComponent</title>
<polygon fill="#ffffb3" stroke="black" points="663.94,-84.8 438.06,-84.8 438.06,-48.8 663.94,-48.8 663.94,-84.8"/>
<text text-anchor="middle" x="551" y="-62.6" font-family="Times,serif" font-size="14.00">CalendarItemTournamentComponent</text>
</g>
<!-- CalendarItemTournamentComponent&#45;&gt;CalendarModule -->
<g id="edge2" class="edge">
<title>CalendarItemTournamentComponent&#45;&gt;CalendarModule</title>
<path fill="none" stroke="black" d="M551,-84.82C551,-102.17 551,-125.8 551,-125.8 551,-125.8 404.15,-125.8 404.15,-125.8"/>
<polygon fill="black" stroke="black" points="404.15,-122.3 394.15,-125.8 404.15,-129.3 404.15,-122.3"/>
</g>
<!-- CalendarItemsComponent -->
<g id="node3" class="node">
<title>CalendarItemsComponent</title>
<polygon fill="#ffffb3" stroke="black" points="420.47,-84.8 257.53,-84.8 257.53,-48.8 420.47,-48.8 420.47,-84.8"/>
<text text-anchor="middle" x="339" y="-62.6" font-family="Times,serif" font-size="14.00">CalendarItemsComponent</text>
</g>
<!-- CalendarItemsComponent&#45;&gt;CalendarModule -->
<g id="edge3" class="edge">
<title>CalendarItemsComponent&#45;&gt;CalendarModule</title>
<path fill="none" stroke="black" d="M339,-84.91C339,-84.91 339,-103.79 339,-103.79"/>
<polygon fill="black" stroke="black" points="335.5,-103.79 339,-113.79 342.5,-103.79 335.5,-103.79"/>
</g>
<!-- CalendarPage -->
<g id="node4" class="node">
<title>CalendarPage</title>
<polygon fill="#ffffb3" stroke="black" points="239.75,-84.8 146.25,-84.8 146.25,-48.8 239.75,-48.8 239.75,-84.8"/>
<text text-anchor="middle" x="193" y="-62.6" font-family="Times,serif" font-size="14.00">CalendarPage</text>
</g>
<!-- CalendarPage&#45;&gt;CalendarModule -->
<g id="edge4" class="edge">
<title>CalendarPage&#45;&gt;CalendarModule</title>
<path fill="none" stroke="black" d="M193,-84.82C193,-102.17 193,-125.8 193,-125.8 193,-125.8 273.8,-125.8 273.8,-125.8"/>
<polygon fill="black" stroke="black" points="273.8,-129.3 283.8,-125.8 273.8,-122.3 273.8,-129.3"/>
</g>
<!-- SharedModule -->
<g id="node6" class="node">
<title>SharedModule</title>
<polygon fill="#8dd3c7" stroke="black" points="122.43,-84.8 119.43,-88.8 98.43,-88.8 95.43,-84.8 23.57,-84.8 23.57,-48.8 122.43,-48.8 122.43,-84.8"/>
<text text-anchor="middle" x="73" y="-62.6" font-family="Times,serif" font-size="14.00">SharedModule</text>
</g>
<!-- SharedModule&#45;&gt;CalendarModule -->
<g id="edge5" class="edge">
<title>SharedModule&#45;&gt;CalendarModule</title>
<path fill="none" stroke="black" d="M73,-85.08C73,-106.12 73,-137.8 73,-137.8 73,-137.8 273.88,-137.8 273.88,-137.8"/>
<polygon fill="black" stroke="black" points="273.88,-141.3 283.88,-137.8 273.88,-134.3 273.88,-141.3"/>
</g>
</g>
</svg>
