<?xml version="1.0" encoding="UTF-8" standalone="no"?>
<!DOCTYPE svg PUBLIC "-//W3C//DTD SVG 1.1//EN"
 "http://www.w3.org/Graphics/SVG/1.1/DTD/svg11.dtd">
<!-- Generated by graphviz version 3.0.0 (20220226.1711)
 -->
<!-- Title: dependencies Pages: 1 -->
<svg width="256pt" height="174pt"
 viewBox="0.00 0.00 256.00 173.80" xmlns="http://www.w3.org/2000/svg" xmlns:xlink="http://www.w3.org/1999/xlink">
<g id="graph0" class="graph" transform="scale(1 1) rotate(0) translate(4 169.8)">
<title>dependencies</title>
<polygon fill="white" stroke="transparent" points="-4,4 -4,-169.8 252,-169.8 252,4 -4,4"/>
<text text-anchor="middle" x="124" y="-8.2" font-family="sans-serif" font-size="14.00">dependencies</text>
<g id="clust1" class="cluster">
<title>cluster_HomeModule</title>
<polygon fill="none" stroke="black" stroke-dasharray="1,5" points="8,-32.8 8,-157.8 240,-157.8 240,-32.8 8,-32.8"/>
</g>
<g id="clust4" class="cluster">
<title>cluster_HomeModule_imports</title>
<polygon fill="none" stroke="black" points="118,-40.8 118,-92.8 232,-92.8 232,-40.8 118,-40.8"/>
</g>
<g id="clust2" class="cluster">
<title>cluster_HomeModule_declarations</title>
<polygon fill="none" stroke="black" points="16,-40.8 16,-92.8 110,-92.8 110,-40.8 16,-40.8"/>
</g>
<!-- HomePage -->
<g id="node1" class="node">
<title>HomePage</title>
<polygon fill="#ffffb3" stroke="black" points="101.93,-84.8 24.07,-84.8 24.07,-48.8 101.93,-48.8 101.93,-84.8"/>
<text text-anchor="middle" x="63" y="-62.6" font-family="Times,serif" font-size="14.00">HomePage</text>
</g>
<!-- HomeModule -->
<g id="node2" class="node">
<title>HomeModule</title>
<polygon fill="#8dd3c7" stroke="black" points="165.77,-149.8 162.77,-153.8 141.77,-153.8 138.77,-149.8 72.23,-149.8 72.23,-113.8 165.77,-113.8 165.77,-149.8"/>
<text text-anchor="middle" x="119" y="-127.6" font-family="Times,serif" font-size="14.00">HomeModule</text>
</g>
<!-- HomePage&#45;&gt;HomeModule -->
<g id="edge1" class="edge">
<title>HomePage&#45;&gt;HomeModule</title>
<path fill="none" stroke="black" d="M86.92,-84.91C86.92,-84.91 86.92,-103.79 86.92,-103.79"/>
<polygon fill="black" stroke="black" points="83.42,-103.79 86.92,-113.79 90.42,-103.79 83.42,-103.79"/>
</g>
<!-- SharedModule -->
<g id="node3" class="node">
<title>SharedModule</title>
<polygon fill="#8dd3c7" stroke="black" points="224.43,-84.8 221.43,-88.8 200.43,-88.8 197.43,-84.8 125.57,-84.8 125.57,-48.8 224.43,-48.8 224.43,-84.8"/>
<text text-anchor="middle" x="175" y="-62.6" font-family="Times,serif" font-size="14.00">SharedModule</text>
</g>
<!-- SharedModule&#45;&gt;HomeModule -->
<g id="edge2" class="edge">
<title>SharedModule&#45;&gt;HomeModule</title>
<path fill="none" stroke="black" d="M145.83,-84.91C145.83,-84.91 145.83,-103.79 145.83,-103.79"/>
<polygon fill="black" stroke="black" points="142.33,-103.79 145.83,-113.79 149.33,-103.79 142.33,-103.79"/>
</g>
</g>
</svg>
