<?xml version="1.0" encoding="UTF-8" standalone="no"?>
<!DOCTYPE svg PUBLIC "-//W3C//DTD SVG 1.1//EN"
 "http://www.w3.org/Graphics/SVG/1.1/DTD/svg11.dtd">
<!-- Generated by graphviz version 3.0.0 (20220226.1711)
 -->
<!-- Title: dependencies Pages: 1 -->
<svg width="453pt" height="312pt"
 viewBox="0.00 0.00 453.00 311.80" xmlns="http://www.w3.org/2000/svg" xmlns:xlink="http://www.w3.org/1999/xlink">
<g id="graph0" class="graph" transform="scale(1 1) rotate(0) translate(4 307.8)">
<title>dependencies</title>
<polygon fill="white" stroke="transparent" points="-4,4 -4,-307.8 449,-307.8 449,4 -4,4"/>
<text text-anchor="middle" x="222.5" y="-8.2" font-family="sans-serif" font-size="14.00">dependencies</text>
<g id="clust1" class="cluster">
<title>cluster_AppModule</title>
<polygon fill="none" stroke="black" stroke-dasharray="1,5" points="8,-32.8 8,-295.8 437,-295.8 437,-32.8 8,-32.8"/>
</g>
<g id="clust4" class="cluster">
<title>cluster_AppModule_imports</title>
<polygon fill="none" stroke="black" points="168,-105.8 168,-157.8 429,-157.8 429,-105.8 168,-105.8"/>
</g>
<g id="clust6" class="cluster">
<title>cluster_AppModule_bootstrap</title>
<polygon fill="none" stroke="black" points="163,-235.8 163,-287.8 287,-287.8 287,-235.8 163,-235.8"/>
</g>
<g id="clust3" class="cluster">
<title>cluster_AppModule_AppComponent_providers</title>
<polygon fill="none" stroke="black" points="16,-40.8 16,-157.8 160,-157.8 160,-40.8 16,-40.8"/>
</g>
<!-- AppComponent -->
<g id="node1" class="node">
<title>AppComponent</title>
<polygon fill="#ffffb3" stroke="black" points="145.94,-149.8 40.06,-149.8 40.06,-113.8 145.94,-113.8 145.94,-149.8"/>
<text text-anchor="middle" x="93" y="-127.6" font-family="Times,serif" font-size="14.00">AppComponent</text>
</g>
<!-- AppModule -->
<g id="node2" class="node">
<title>AppModule</title>
<polygon fill="#8dd3c7" stroke="black" points="266.66,-214.8 263.66,-218.8 242.66,-218.8 239.66,-214.8 183.34,-214.8 183.34,-178.8 266.66,-178.8 266.66,-214.8"/>
<text text-anchor="middle" x="225" y="-192.6" font-family="Times,serif" font-size="14.00">AppModule</text>
</g>
<!-- AppComponent&#45;&gt;AppModule -->
<g id="edge1" class="edge">
<title>AppComponent&#45;&gt;AppModule</title>
<path fill="none" stroke="black" d="M93,-149.91C93,-169.14 93,-196.8 93,-196.8 93,-196.8 173.23,-196.8 173.23,-196.8"/>
<polygon fill="black" stroke="black" points="173.23,-200.3 183.23,-196.8 173.23,-193.3 173.23,-200.3"/>
</g>
<!-- AppComponent  -->
<g id="node6" class="node">
<title>AppComponent </title>
<polygon fill="#80b1d3" stroke="black" points="279.44,-279.8 170.56,-279.8 170.56,-243.8 279.44,-243.8 279.44,-279.8"/>
<text text-anchor="middle" x="225" y="-257.6" font-family="Times,serif" font-size="14.00">AppComponent </text>
</g>
<!-- AppModule&#45;&gt;AppComponent  -->
<g id="edge5" class="edge">
<title>AppModule&#45;&gt;AppComponent </title>
<path fill="none" stroke="black" stroke-dasharray="1,5" d="M225,-214.91C225,-214.91 225,-233.79 225,-233.79"/>
<polygon fill="black" stroke="black" points="221.5,-233.79 225,-243.79 228.5,-233.79 221.5,-233.79"/>
</g>
<!-- TranslatePipe -->
<g id="node3" class="node">
<title>TranslatePipe</title>
<ellipse fill="#fdb462" stroke="black" cx="88" cy="-66.8" rx="64.26" ry="18"/>
<text text-anchor="middle" x="88" y="-62.6" font-family="Times,serif" font-size="14.00">TranslatePipe</text>
</g>
<!-- TranslatePipe&#45;&gt;AppComponent -->
<g id="edge2" class="edge">
<title>TranslatePipe&#45;&gt;AppComponent</title>
<path fill="none" stroke="black" d="M93,-84.91C93,-84.91 93,-103.79 93,-103.79"/>
<polygon fill="black" stroke="black" points="89.5,-103.79 93,-113.79 96.5,-103.79 89.5,-103.79"/>
</g>
<!-- AppRoutingModule -->
<g id="node4" class="node">
<title>AppRoutingModule</title>
<polygon fill="#8dd3c7" stroke="black" points="421.28,-149.8 418.28,-153.8 397.28,-153.8 394.28,-149.8 292.72,-149.8 292.72,-113.8 421.28,-113.8 421.28,-149.8"/>
<text text-anchor="middle" x="357" y="-127.6" font-family="Times,serif" font-size="14.00">AppRoutingModule</text>
</g>
<!-- AppRoutingModule&#45;&gt;AppModule -->
<g id="edge3" class="edge">
<title>AppRoutingModule&#45;&gt;AppModule</title>
<path fill="none" stroke="black" d="M357,-149.91C357,-169.14 357,-196.8 357,-196.8 357,-196.8 276.77,-196.8 276.77,-196.8"/>
<polygon fill="black" stroke="black" points="276.77,-193.3 266.77,-196.8 276.77,-200.3 276.77,-193.3"/>
</g>
<!-- SharedModule -->
<g id="node5" class="node">
<title>SharedModule</title>
<polygon fill="#8dd3c7" stroke="black" points="274.43,-149.8 271.43,-153.8 250.43,-153.8 247.43,-149.8 175.57,-149.8 175.57,-113.8 274.43,-113.8 274.43,-149.8"/>
<text text-anchor="middle" x="225" y="-127.6" font-family="Times,serif" font-size="14.00">SharedModule</text>
</g>
<!-- SharedModule&#45;&gt;AppModule -->
<g id="edge4" class="edge">
<title>SharedModule&#45;&gt;AppModule</title>
<path fill="none" stroke="black" d="M225,-149.91C225,-149.91 225,-168.79 225,-168.79"/>
<polygon fill="black" stroke="black" points="221.5,-168.79 225,-178.79 228.5,-168.79 221.5,-168.79"/>
</g>
</g>
</svg>
