<?xml version="1.0" encoding="UTF-8" standalone="no"?>
<!DOCTYPE svg PUBLIC "-//W3C//DTD SVG 1.1//EN"
 "http://www.w3.org/Graphics/SVG/1.1/DTD/svg11.dtd">
<!-- Generated by graphviz version 3.0.0 (20220226.1711)
 -->
<!-- Title: dependencies Pages: 1 -->
<svg width="296pt" height="174pt"
 viewBox="0.00 0.00 296.00 173.80" xmlns="http://www.w3.org/2000/svg" xmlns:xlink="http://www.w3.org/1999/xlink">
<g id="graph0" class="graph" transform="scale(1 1) rotate(0) translate(4 169.8)">
<title>dependencies</title>
<polygon fill="white" stroke="transparent" points="-4,4 -4,-169.8 292,-169.8 292,4 -4,4"/>
<text text-anchor="middle" x="144" y="-8.2" font-family="sans-serif" font-size="14.00">dependencies</text>
<g id="clust1" class="cluster">
<title>cluster_TournamentsModule</title>
<polygon fill="none" stroke="black" stroke-dasharray="1,5" points="8,-32.8 8,-157.8 280,-157.8 280,-32.8 8,-32.8"/>
</g>
<g id="clust2" class="cluster">
<title>cluster_TournamentsModule_declarations</title>
<polygon fill="none" stroke="black" points="138,-40.8 138,-92.8 272,-92.8 272,-40.8 138,-40.8"/>
</g>
<g id="clust4" class="cluster">
<title>cluster_TournamentsModule_imports</title>
<polygon fill="none" stroke="black" points="16,-40.8 16,-92.8 130,-92.8 130,-40.8 16,-40.8"/>
</g>
<!-- TournamentsPage -->
<g id="node1" class="node">
<title>TournamentsPage</title>
<polygon fill="#ffffb3" stroke="black" points="263.58,-84.8 146.42,-84.8 146.42,-48.8 263.58,-48.8 263.58,-84.8"/>
<text text-anchor="middle" x="205" y="-62.6" font-family="Times,serif" font-size="14.00">TournamentsPage</text>
</g>
<!-- TournamentsModule -->
<g id="node2" class="node">
<title>TournamentsModule</title>
<polygon fill="#8dd3c7" stroke="black" points="210.92,-149.8 207.92,-153.8 186.92,-153.8 183.92,-149.8 77.08,-149.8 77.08,-113.8 210.92,-113.8 210.92,-149.8"/>
<text text-anchor="middle" x="144" y="-127.6" font-family="Times,serif" font-size="14.00">TournamentsModule</text>
</g>
<!-- TournamentsPage&#45;&gt;TournamentsModule -->
<g id="edge1" class="edge">
<title>TournamentsPage&#45;&gt;TournamentsModule</title>
<path fill="none" stroke="black" d="M178.58,-84.91C178.58,-84.91 178.58,-103.79 178.58,-103.79"/>
<polygon fill="black" stroke="black" points="175.08,-103.79 178.58,-113.79 182.08,-103.79 175.08,-103.79"/>
</g>
<!-- SharedModule -->
<g id="node3" class="node">
<title>SharedModule</title>
<polygon fill="#8dd3c7" stroke="black" points="122.43,-84.8 119.43,-88.8 98.43,-88.8 95.43,-84.8 23.57,-84.8 23.57,-48.8 122.43,-48.8 122.43,-84.8"/>
<text text-anchor="middle" x="73" y="-62.6" font-family="Times,serif" font-size="14.00">SharedModule</text>
</g>
<!-- SharedModule&#45;&gt;TournamentsModule -->
<g id="edge2" class="edge">
<title>SharedModule&#45;&gt;TournamentsModule</title>
<path fill="none" stroke="black" d="M99.75,-84.91C99.75,-84.91 99.75,-103.79 99.75,-103.79"/>
<polygon fill="black" stroke="black" points="96.25,-103.79 99.75,-113.79 103.25,-103.79 96.25,-103.79"/>
</g>
</g>
</svg>
