<?xml version="1.0" encoding="UTF-8" standalone="no"?>
<!DOCTYPE svg PUBLIC "-//W3C//DTD SVG 1.1//EN"
 "http://www.w3.org/Graphics/SVG/1.1/DTD/svg11.dtd">
<!-- Generated by graphviz version 3.0.0 (20220226.1711)
 -->
<!-- Title: dependencies Pages: 1 -->
<svg width="252pt" height="174pt"
 viewBox="0.00 0.00 252.00 173.80" xmlns="http://www.w3.org/2000/svg" xmlns:xlink="http://www.w3.org/1999/xlink">
<g id="graph0" class="graph" transform="scale(1 1) rotate(0) translate(4 169.8)">
<title>dependencies</title>
<polygon fill="white" stroke="transparent" points="-4,4 -4,-169.8 248,-169.8 248,4 -4,4"/>
<text text-anchor="middle" x="122" y="-8.2" font-family="sans-serif" font-size="14.00">dependencies</text>
<g id="clust1" class="cluster">
<title>cluster_LikesModule</title>
<polygon fill="none" stroke="black" stroke-dasharray="1,5" points="8,-32.8 8,-157.8 236,-157.8 236,-32.8 8,-32.8"/>
</g>
<g id="clust4" class="cluster">
<title>cluster_LikesModule_imports</title>
<polygon fill="none" stroke="black" points="114,-40.8 114,-92.8 228,-92.8 228,-40.8 114,-40.8"/>
</g>
<g id="clust2" class="cluster">
<title>cluster_LikesModule_declarations</title>
<polygon fill="none" stroke="black" points="16,-40.8 16,-92.8 106,-92.8 106,-40.8 16,-40.8"/>
</g>
<!-- LikesPage -->
<g id="node1" class="node">
<title>LikesPage</title>
<polygon fill="#ffffb3" stroke="black" points="98.32,-84.8 23.68,-84.8 23.68,-48.8 98.32,-48.8 98.32,-84.8"/>
<text text-anchor="middle" x="61" y="-62.6" font-family="Times,serif" font-size="14.00">LikesPage</text>
</g>
<!-- LikesModule -->
<g id="node2" class="node">
<title>LikesModule</title>
<polygon fill="#8dd3c7" stroke="black" points="161.16,-149.8 158.16,-153.8 137.16,-153.8 134.16,-149.8 70.84,-149.8 70.84,-113.8 161.16,-113.8 161.16,-149.8"/>
<text text-anchor="middle" x="116" y="-127.6" font-family="Times,serif" font-size="14.00">LikesModule</text>
</g>
<!-- LikesPage&#45;&gt;LikesModule -->
<g id="edge1" class="edge">
<title>LikesPage&#45;&gt;LikesModule</title>
<path fill="none" stroke="black" d="M84.42,-84.91C84.42,-84.91 84.42,-103.79 84.42,-103.79"/>
<polygon fill="black" stroke="black" points="80.92,-103.79 84.42,-113.79 87.92,-103.79 80.92,-103.79"/>
</g>
<!-- SharedModule -->
<g id="node3" class="node">
<title>SharedModule</title>
<polygon fill="#8dd3c7" stroke="black" points="220.43,-84.8 217.43,-88.8 196.43,-88.8 193.43,-84.8 121.57,-84.8 121.57,-48.8 220.43,-48.8 220.43,-84.8"/>
<text text-anchor="middle" x="171" y="-62.6" font-family="Times,serif" font-size="14.00">SharedModule</text>
</g>
<!-- SharedModule&#45;&gt;LikesModule -->
<g id="edge2" class="edge">
<title>SharedModule&#45;&gt;LikesModule</title>
<path fill="none" stroke="black" d="M141.56,-84.91C141.56,-84.91 141.56,-103.79 141.56,-103.79"/>
<polygon fill="black" stroke="black" points="138.06,-103.79 141.56,-113.79 145.06,-103.79 138.06,-103.79"/>
</g>
</g>
</svg>
