<?xml version="1.0" encoding="UTF-8" standalone="no"?>
<!DOCTYPE svg PUBLIC "-//W3C//DTD SVG 1.1//EN"
 "http://www.w3.org/Graphics/SVG/1.1/DTD/svg11.dtd">
<!-- Generated by graphviz version 3.0.0 (20220226.1711)
 -->
<!-- Title: dependencies Pages: 1 -->
<svg width="268pt" height="174pt"
 viewBox="0.00 0.00 268.00 173.80" xmlns="http://www.w3.org/2000/svg" xmlns:xlink="http://www.w3.org/1999/xlink">
<g id="graph0" class="graph" transform="scale(1 1) rotate(0) translate(4 169.8)">
<title>dependencies</title>
<polygon fill="white" stroke="transparent" points="-4,4 -4,-169.8 264,-169.8 264,4 -4,4"/>
<text text-anchor="middle" x="130" y="-8.2" font-family="sans-serif" font-size="14.00">dependencies</text>
<g id="clust1" class="cluster">
<title>cluster_MyDataModule</title>
<polygon fill="none" stroke="black" stroke-dasharray="1,5" points="8,-32.8 8,-157.8 252,-157.8 252,-32.8 8,-32.8"/>
</g>
<g id="clust4" class="cluster">
<title>cluster_MyDataModule_imports</title>
<polygon fill="none" stroke="black" points="130,-40.8 130,-92.8 244,-92.8 244,-40.8 130,-40.8"/>
</g>
<g id="clust2" class="cluster">
<title>cluster_MyDataModule_declarations</title>
<polygon fill="none" stroke="black" points="16,-40.8 16,-92.8 122,-92.8 122,-40.8 16,-40.8"/>
</g>
<!-- MyDataPage -->
<g id="node1" class="node">
<title>MyDataPage</title>
<polygon fill="#ffffb3" stroke="black" points="113.59,-84.8 24.41,-84.8 24.41,-48.8 113.59,-48.8 113.59,-84.8"/>
<text text-anchor="middle" x="69" y="-62.6" font-family="Times,serif" font-size="14.00">MyDataPage</text>
</g>
<!-- MyDataModule -->
<g id="node2" class="node">
<title>MyDataModule</title>
<polygon fill="#8dd3c7" stroke="black" points="180.93,-149.8 177.93,-153.8 156.93,-153.8 153.93,-149.8 75.07,-149.8 75.07,-113.8 180.93,-113.8 180.93,-149.8"/>
<text text-anchor="middle" x="128" y="-127.6" font-family="Times,serif" font-size="14.00">MyDataModule</text>
</g>
<!-- MyDataPage&#45;&gt;MyDataModule -->
<g id="edge1" class="edge">
<title>MyDataPage&#45;&gt;MyDataModule</title>
<path fill="none" stroke="black" d="M94.42,-84.91C94.42,-84.91 94.42,-103.79 94.42,-103.79"/>
<polygon fill="black" stroke="black" points="90.92,-103.79 94.42,-113.79 97.92,-103.79 90.92,-103.79"/>
</g>
<!-- SharedModule -->
<g id="node3" class="node">
<title>SharedModule</title>
<polygon fill="#8dd3c7" stroke="black" points="236.43,-84.8 233.43,-88.8 212.43,-88.8 209.43,-84.8 137.57,-84.8 137.57,-48.8 236.43,-48.8 236.43,-84.8"/>
<text text-anchor="middle" x="187" y="-62.6" font-family="Times,serif" font-size="14.00">SharedModule</text>
</g>
<!-- SharedModule&#45;&gt;MyDataModule -->
<g id="edge2" class="edge">
<title>SharedModule&#45;&gt;MyDataModule</title>
<path fill="none" stroke="black" d="M159.25,-84.91C159.25,-84.91 159.25,-103.79 159.25,-103.79"/>
<polygon fill="black" stroke="black" points="155.75,-103.79 159.25,-113.79 162.75,-103.79 155.75,-103.79"/>
</g>
</g>
</svg>
