<?xml version="1.0" encoding="UTF-8" standalone="no"?>
<!DOCTYPE svg PUBLIC "-//W3C//DTD SVG 1.1//EN"
 "http://www.w3.org/Graphics/SVG/1.1/DTD/svg11.dtd">
<!-- Generated by graphviz version 3.0.0 (20220226.1711)
 -->
<!-- Title: dependencies Pages: 1 -->
<svg width="248pt" height="174pt"
 viewBox="0.00 0.00 248.00 173.80" xmlns="http://www.w3.org/2000/svg" xmlns:xlink="http://www.w3.org/1999/xlink">
<g id="graph0" class="graph" transform="scale(1 1) rotate(0) translate(4 169.8)">
<title>dependencies</title>
<polygon fill="white" stroke="transparent" points="-4,4 -4,-169.8 244,-169.8 244,4 -4,4"/>
<text text-anchor="middle" x="120" y="-8.2" font-family="sans-serif" font-size="14.00">dependencies</text>
<g id="clust1" class="cluster">
<title>cluster_TabsModule</title>
<polygon fill="none" stroke="black" stroke-dasharray="1,5" points="8,-32.8 8,-157.8 232,-157.8 232,-32.8 8,-32.8"/>
</g>
<g id="clust2" class="cluster">
<title>cluster_TabsModule_declarations</title>
<polygon fill="none" stroke="black" points="138,-40.8 138,-92.8 224,-92.8 224,-40.8 138,-40.8"/>
</g>
<g id="clust4" class="cluster">
<title>cluster_TabsModule_imports</title>
<polygon fill="none" stroke="black" points="16,-40.8 16,-92.8 130,-92.8 130,-40.8 16,-40.8"/>
</g>
<!-- TabsPage -->
<g id="node1" class="node">
<title>TabsPage</title>
<polygon fill="#ffffb3" stroke="black" points="216.43,-84.8 145.57,-84.8 145.57,-48.8 216.43,-48.8 216.43,-84.8"/>
<text text-anchor="middle" x="181" y="-62.6" font-family="Times,serif" font-size="14.00">TabsPage</text>
</g>
<!-- TabsModule -->
<g id="node2" class="node">
<title>TabsModule</title>
<polygon fill="#8dd3c7" stroke="black" points="170.27,-149.8 167.27,-153.8 146.27,-153.8 143.27,-149.8 83.73,-149.8 83.73,-113.8 170.27,-113.8 170.27,-149.8"/>
<text text-anchor="middle" x="127" y="-127.6" font-family="Times,serif" font-size="14.00">TabsModule</text>
</g>
<!-- TabsPage&#45;&gt;TabsModule -->
<g id="edge1" class="edge">
<title>TabsPage&#45;&gt;TabsModule</title>
<path fill="none" stroke="black" d="M158.08,-84.91C158.08,-84.91 158.08,-103.79 158.08,-103.79"/>
<polygon fill="black" stroke="black" points="154.58,-103.79 158.08,-113.79 161.58,-103.79 154.58,-103.79"/>
</g>
<!-- SharedModule -->
<g id="node3" class="node">
<title>SharedModule</title>
<polygon fill="#8dd3c7" stroke="black" points="122.43,-84.8 119.43,-88.8 98.43,-88.8 95.43,-84.8 23.57,-84.8 23.57,-48.8 122.43,-48.8 122.43,-84.8"/>
<text text-anchor="middle" x="73" y="-62.6" font-family="Times,serif" font-size="14.00">SharedModule</text>
</g>
<!-- SharedModule&#45;&gt;TabsModule -->
<g id="edge2" class="edge">
<title>SharedModule&#45;&gt;TabsModule</title>
<path fill="none" stroke="black" d="M102.92,-84.91C102.92,-84.91 102.92,-103.79 102.92,-103.79"/>
<polygon fill="black" stroke="black" points="99.42,-103.79 102.92,-113.79 106.42,-103.79 99.42,-103.79"/>
</g>
</g>
</svg>
